<svg width="231" height="244" viewBox="0 0 231 244" fill="none" xmlns="http://www.w3.org/2000/svg">
<path d="M55.55 236.16V214.69L48.09 208.63L52.46 203.26L55.55 205.76V200.2C-5.69 195.98 51.59 82.07 59.02 82.07C61.1 82.07 70.87 97.16 78.86 116.5C83.07 94.83 107.63 28.45 117.49 28.45C123.5 28.45 137.76 60.15 141.99 70.61C145.75 46.55 166.31 0.209991 172.3 0.209991C179.73 0.209991 237.02 114.12 175.77 118.34V187.28L185.49 179.42L189.83 184.82L175.77 196.18V236.14L55.55 236.16ZM183.23 96.66L175.78 102.71V111.38C224.26 107.15 174.03 7.16999 172.31 7.16999C170.58 7.16999 120.36 107.15 168.84 111.38V75.09H175.78V93.79L178.86 91.29L183.23 96.66ZM168.83 118.35C163.7 118 159.4 116.84 155.83 115.03C162.18 146.2 160.61 183.21 120.96 185.36V196.52L127.08 191.55L131.45 196.92L120.96 205.44V236.17H168.83V118.36V118.35ZM69.94 178.52L62.49 184.57V193.24C111.09 189 60.52 89.03 59.02 89.03C57.29 89.03 7.07001 189.01 55.55 193.24V156.95H62.49V175.65L65.57 173.15L69.94 178.52ZM62.49 236.16H114.02V185.35C104.66 184.85 96.12 182.25 89.54 176.6C86.92 189.69 78.94 199.07 62.49 200.21V236.16ZM90.46 167.55C96.03 174.81 104.38 177.83 114.02 178.4V164.83L103.52 156.31L107.89 150.94L114.02 155.92V128.18H120.96V178.41C143.86 177.06 151.76 161.98 151.76 140.57C151.76 118.57 136.4 73.12 126.92 53.77C121.47 42.65 117.72 35.41 117.49 35.41C112.62 35.41 82.2 114.5 83.81 129.9C84.94 140.69 90.83 150.7 90.46 167.56V167.55Z" fill="#61C878"/>
</svg>
