<svg width="601" height="649" viewBox="0 0 601 649" fill="none" xmlns="http://www.w3.org/2000/svg">
<g clip-path="url(#clip0_1_30)">
<path d="M500.45 526.612C483.622 507.037 478.47 479.551 484.059 456.897C486.706 445.49 491.83 435.228 498.192 426.815C504.581 418.605 511.89 411.185 520.808 407.89C529.555 404.566 538.442 404.941 545.446 407.166C552.524 409.398 557.783 413.362 561.304 417.132C565.074 420.869 566.255 425.176 566.47 427.873C566.649 430.139 566.407 431.514 566.331 431.939C567.147 426.626 565.028 420.996 561.16 417.293C557.46 413.414 552.887 410.379 547.906 408.447C537.934 404.524 526.385 405.284 517.188 410.197C499.442 421.26 489.205 439.539 484.926 456.607C480.72 473.948 482.835 490.402 487.264 502.778C491.752 515.251 498.16 523.87 502.784 529.027C503.805 530.035 504.33 530.54 504.33 530.54C496.886 520.15 489.834 505.371 487.725 488.548C487.741 488.57 487.751 488.597 487.763 488.621C487.747 488.57 487.734 488.518 487.717 488.47C487.264 484.835 487.046 481.103 487.103 477.301C487.832 473.251 489.476 469.41 491.615 466.294C495.719 460.157 501.146 456.023 506.013 453.366C515.257 448.414 522.34 448.415 523.201 448.375C510.329 449.84 498.641 457.738 492.601 466.804C486.182 476.036 486.924 485.743 488.322 489.56C488.567 489.955 488.703 490.144 488.703 490.146C490.319 485.039 492.085 480.125 495.027 475.374C493.138 476.804 491.204 478.22 489.123 479.236C489.112 479.239 492.478 474.7 497.784 471.316C501.052 466.887 505.321 462.663 509.82 459.151C504.212 462.398 496.804 466.226 489.846 474.741C489.825 474.76 492.367 469.926 497.461 465.483C502.467 460.936 509.807 457.075 515.697 455.04C517.83 453.726 519.924 452.613 521.878 451.704C515.308 452.792 505.484 455.862 496.389 463.327C496.368 463.335 500.093 459.418 505.92 456.13C511.663 452.729 519.519 450.378 525.062 450.349C529.457 448.678 532.553 448.292 532.541 448.251C523.372 445.26 513.689 447.177 506.375 450.57C498.935 454.046 493.332 459.299 489.922 464.774C488.986 466.271 488.226 467.776 487.608 469.257C488.801 458.204 492.356 447.085 498.118 437.21C501.181 431.954 504.876 427.078 509 422.687C513.177 418.153 517.433 414.623 522.665 412.487C532.96 408.091 544.82 409.488 553.287 414.691C557.463 417.301 561.42 420.522 563.142 424.269C564.966 428.096 564.929 432.437 563.598 435.898C562.227 439.277 559.904 442.377 557.167 443.025C555.588 443.473 554.029 443.254 552.745 442.694C553.199 442.778 553.676 442.797 554.161 442.738C556.753 442.43 558.603 440.08 558.297 437.489C557.988 434.898 555.638 433.046 553.047 433.353C550.455 433.661 548.604 436.01 548.911 438.603C548.969 439.088 549.098 439.548 549.288 439.974C549.293 439.99 549.294 440.005 549.299 440.022C549.649 442.095 551.527 443.364 553.281 444.141C555.139 444.873 557.312 444.867 559.212 444.078C561.157 443.248 562.561 441.818 563.817 440.355C568.874 434.28 569.019 424.761 564.148 418.483C555.003 406.522 539.283 401.721 525.949 404.657C519.247 406.042 513.122 409.212 508.246 413.466C503.589 417.521 499.567 421.974 496.142 426.632C489.293 435.962 484.969 446.067 482.681 455.699C478.122 475.148 481.433 492.076 486.119 503.777C490.936 515.625 496.926 522.721 500.45 526.612Z" fill="#28B485"/>
<path d="M559.33 528.205C567.897 521.924 580.032 516.835 588.908 516.13C596.067 513.851 601.022 513.959 601 513.874C586.328 510.023 571.567 515.181 560.924 521.502C550.063 528.075 542.19 536.469 536.958 544.565C531.702 552.69 529.121 560.58 528.252 566.833C527.979 568.807 527.861 570.608 527.848 572.231C525.417 566.371 522.695 560.743 519.698 555.386C500.452 520.77 471.618 497.983 444.664 485.511C442.244 484.382 439.843 483.332 437.457 482.351C439.171 478.689 440.226 475.795 440.29 472.671C438.558 474.702 436.276 476.878 433.249 479.098C433.232 479.081 436.524 474.289 440.128 469.313C439.64 465.651 438.19 462.02 436.475 458.585C436.405 462.857 434.812 468.344 431.064 476.785C430.799 476.677 432.915 462.134 434.154 454.28C433.295 452.774 432.45 451.343 431.665 450.023C430.451 454.251 428.975 460.843 427.51 468.904C427.364 469.001 426.576 454.752 430.402 447.88C428.682 444.954 427.64 442.791 427.631 442.787C421.565 447.986 419.077 454.78 418.274 460.154C417.499 465.68 418.514 470.42 420.337 474.174C420.79 475.119 421.294 476 421.836 476.819C403.449 471.326 386.626 469.798 372.909 469.999C353.524 470.334 339.899 473.8 332.104 475.946C337.602 474.52 343.145 473.416 348.703 472.6C347.705 472.889 346.696 473.171 345.682 473.448C339.142 474.478 333.507 475.766 328.881 476.992C325.453 471.978 318.096 468.754 310.459 469.877C314.396 471.181 317.595 473.749 319.259 477.371C319.039 477.141 313.165 472.1 302.818 471.892C298.673 473.627 295.059 476.154 291.995 479.078C274.79 478.194 256.897 474.72 239.253 467.839C225.927 462.799 212.872 455.727 200.728 446.861C201.685 447.049 202.414 447.184 202.957 447.242C201.691 446.61 200.18 445.918 198.408 445.135C198.07 444.88 197.731 444.624 197.395 444.364C199.18 444.967 201.666 445.922 203.995 447.226C204.772 447.017 204.703 446.142 204.493 444.705C203.351 444.797 200.999 443.458 194.563 442.14C194.534 442.119 194.502 442.094 194.473 442.071C194.963 442.008 196.659 441.837 198.465 441.908C200.684 441.979 202.98 442.503 204.195 442.664C204.069 441.815 204 441.018 203.937 440.153C202.289 439.605 199.515 438.882 195.184 438.842C195.08 438.732 200.476 436.44 203.866 438.723C203.834 436.784 203.988 435.125 203.978 435.132C200.181 431.041 195.98 430.043 193.097 430.431C190.208 430.9 188.443 432.703 187.881 434.746C187.728 435.252 187.644 435.759 187.616 436.263C170.216 420.727 155.494 401.213 145.74 378.585C143.995 374.723 142.421 370.778 141.034 366.768C139.962 360.153 138.152 353.153 135.706 345.985C133.739 334.214 133.503 322.138 135.421 310.128C135.755 307.909 136.156 305.698 136.622 303.5C138.792 302.258 140.985 301.026 143.31 299.748C141.425 299.893 139.451 299.886 137.531 299.561C137.554 299.466 137.577 299.373 137.599 299.279C139.054 298.907 142.784 298.056 146.935 297.841C150.969 295.798 155.29 294.007 159.288 293.416C154.74 293.074 147.959 293.603 139.279 296.52C139.261 296.536 143.09 294.228 148.42 292.808C153.704 291.263 160.543 291.288 164.195 293.347C165.867 293.591 167.406 294.175 168.755 294.989C167.336 293.056 164.834 291.082 161.143 290.176C157.5 289.235 152.952 289.359 148.27 290.445C148.794 290.278 152.75 288.741 157.885 288.811C160.619 288.825 163.635 289.536 166.035 290.963C168.431 292.435 170.042 294.587 170.818 296.553C173.494 299.064 174.658 301.519 174.716 301.445C174.956 297.57 174.052 293.363 171.314 290.084C168.636 286.763 164.513 284.896 160.776 284.335C153.138 283.266 146.953 285.805 142.57 288.606C141.742 289.153 140.974 289.713 140.26 290.286C145.691 274.309 154.614 259.44 166.404 247.27C172.277 241.194 178.881 235.72 185.985 231.033C189.422 232.866 193.181 236.076 196.107 239.5C194.671 237.069 192.923 234.325 190.587 231.505C189.956 230.82 189.306 230.083 188.6 229.355C188.978 229.121 189.357 228.89 189.737 228.662C189.819 228.731 189.902 228.797 189.984 228.871C194.505 232.815 198.219 239.375 199.822 244.53C201.009 246.377 201.88 248.24 202.589 249.989C202.27 244.226 199.551 235.113 191.922 227.463C191.888 227.463 195.912 230.44 199.069 235.648C202.357 240.733 204.349 248.032 203.523 252.872C204.611 256.893 204.187 259.768 204.279 259.759C209.279 252.323 207.877 242.33 204.492 235.703C202.323 231.368 199.439 227.762 196.056 225.1C206.113 219.851 216.886 216.162 227.845 214.494C250.897 211.28 274.796 219.05 291.499 234.218C299.902 241.739 306.603 250.973 311.08 261.058C315.715 271.155 317.748 281.903 316.412 292.472C314.039 313.664 298.808 331.654 280.198 338.07C271.099 341.556 261.069 341.272 252.495 337.871C243.896 334.496 236.849 328.084 232.719 320.41C228.335 312.761 227.362 303.937 230.24 296.337C232.996 288.76 239.133 282.973 246.083 280.411C252.928 277.631 260.729 279.447 265.585 283.982C270.475 288.457 272.889 295.357 270.545 300.834C268.436 306.201 262.697 309.848 257.805 308.79C252.899 307.863 249.582 302.707 250.921 298.804C252.122 294.793 257.164 293.158 259.408 295.712C262.107 298.002 259.995 301.81 257.731 301.453C257.117 301.4 256.615 301.07 256.289 300.655C256.737 300.879 257.254 300.981 257.789 300.918C259.247 300.745 260.289 299.423 260.115 297.965C259.941 296.508 258.62 295.466 257.162 295.639C255.704 295.814 254.662 297.135 254.836 298.592C254.931 299.389 255.371 300.062 255.986 300.479C256.09 300.678 256.226 300.861 256.397 301.01C257.771 302.42 260.201 301.322 260.796 299.606C262.155 295.741 256.958 292.386 253.644 294.607C250.169 296.237 248.742 300.957 250.626 304.318C252.181 307.752 255.819 310.131 259.631 310.163C267.366 310.062 273.652 302.644 273.133 295.047C272.562 287.474 267.176 280.933 260.304 278.167C253.324 275.195 245.197 276.951 239.189 280.874C233 284.745 228.377 290.964 226.383 297.953C224.239 304.931 225.219 312.662 228.03 319.126C230.794 325.673 235.229 331.469 240.76 335.845C251.793 344.71 267.217 347.412 280.426 343.06C293.438 338.953 304.828 330.359 312.251 319.246C319.781 308.195 323.359 294.752 322.611 281.709C321.798 268.535 316.721 256.457 310.035 245.935C296.432 224.728 273.736 210.944 250.304 207.573C238.582 205.81 226.688 206.569 215.6 209.53C205.823 212.27 196.675 216.125 188.191 220.972C186.469 220.487 184.654 220.247 182.87 220.358C183.792 218.757 184.699 217.133 185.589 215.485C195.916 196.127 203.632 172.809 205.331 147.738C205.501 145.426 205.614 143.1 205.673 140.768C208.267 137.622 210.931 135.151 214.144 133.098C212.197 133.315 210.138 133.577 207.947 133.557C207.929 133.549 212.335 131.272 217.453 131.245C221.233 129.329 225.71 127.998 229.978 127.732C225.222 127.136 218.421 126.451 209.858 130.253C209.826 130.274 213.519 127.417 218.992 126.286C224.422 124.997 231.254 125.814 235.293 127.995C237.117 128.319 238.813 128.884 240.238 129.677C237.14 125.752 228.822 122.118 218.93 123.926C219.191 123.859 223.49 122.447 228.911 123.022C234.554 123.363 240.749 127.057 242.464 131.138C245.427 133.435 246.572 135.97 246.65 135.882C246.851 131.893 245.347 127.663 242.472 124.584C239.615 121.503 235.822 119.626 232.164 118.785C224.751 117.112 217.936 118.969 213.145 121.973C209.525 124.245 207.018 127.214 205.551 130.054C204.641 110.527 199.954 90.737 191.721 72.62C186.42 60.782 179.796 49.604 172.278 39.315C165.094 29 155.905 19.161 145.196 12.589C123.935 -1.10701 97.225 -3.38601 77.018 5.46699C71.976 7.63099 67.344 10.376 63.23 13.526C59.03 16.64 55.458 20.797 53.43 25.361C49.225 34.553 49.902 44.443 52.871 52.141C54.372 56.018 56.346 59.495 58.699 62.387C60.988 65.433 64.15 67.575 67.371 68.552C73.809 70.537 80.523 68.176 82.546 63.564C83.818 59.694 81.854 56.067 79.582 55.199C78.729 54.708 77.721 54.473 76.67 54.598C74.078 54.906 72.227 57.256 72.534 59.847C72.842 62.439 75.193 64.29 77.784 63.983C80.375 63.674 82.227 61.324 81.92 58.733C81.902 58.59 81.877 58.453 81.848 58.316C82.151 59.106 82.317 59.948 82.332 60.769C82.555 64.714 78.701 67.002 75.304 67.676C71.787 68.409 68.094 67.573 65.137 65.73C62.09 63.94 60.084 60.979 58.284 57.921C51.046 45.781 52.168 29.49 61.564 20.387C71.292 11.58 84.362 6.78299 96.837 5.93499C109.447 5.05499 121.843 7.82699 132.564 13.035C154.416 23.159 167.269 43.431 177.957 61.825C178.009 62.305 178.02 62.788 177.977 63.268C178.018 63.313 176.502 59.286 172.289 55.545C167.822 53.947 163.043 53.68 158.777 54.038C163.457 54.691 170.087 56.677 175.105 62.398C175.113 62.423 172.418 60.197 168.07 58.4C163.77 56.539 158.024 55.171 153.519 54.798C151.726 55.16 150.078 55.609 148.611 56.062C153.283 56.474 160.199 57.439 167.031 60.47C167.029 60.485 163.859 59.508 159.613 58.749C155.379 57.955 150.109 57.378 146.291 56.839C143.186 57.968 141.351 58.943 141.348 58.935C153.717 62.721 162.49 64.175 168.893 65.164C174.704 65.968 178.815 66.912 181.153 67.819C189.784 84.839 195.008 102.139 197.251 118.582C202.213 155.397 193.376 186.481 183.851 208.636C181.73 213.481 179.56 217.946 177.391 222.052C177.386 222.055 177.383 222.058 177.379 222.06C178.17 220.362 179.687 216.603 180.432 211.688C179.473 205.701 177.25 199.792 174.228 194.678C176.643 200.821 178.132 209.256 176.13 218.728C176.374 216.06 176.255 199.154 169.785 188.587C167.958 186.632 165.946 184.826 163.263 183.912C166.956 186.257 168.646 190.021 170.253 194.126C171.765 198.28 172.813 203.017 173.334 208.026C173.31 208.034 172.497 203.555 170.626 198.006C169.672 195.24 168.485 192.201 166.815 189.412C165.227 186.866 162.809 183.444 158.616 184.064C155.818 185.603 155.413 187.669 154.93 188.804C154.546 190.026 154.469 190.71 154.451 190.706C155.882 189.173 157.558 187.745 159.014 187.528C160.413 187.376 160.876 188.183 161.738 189.239C163.302 191.508 164.442 194.627 165.437 197.44C167.396 203.201 168.917 208.503 170.294 212.985C171.648 217.483 172.775 221.233 173.472 224.179C173.609 224.766 173.724 225.313 173.826 225.836C173.754 225.973 173.687 226.109 173.627 226.244C172.811 228.06 172.488 229.611 172.398 230.91C172.084 231.434 171.769 231.951 171.457 232.461C159.033 242.633 148.964 255.009 141.73 268.373C131.923 286.273 127.101 305.914 126.87 324.721C126.863 325.043 126.861 325.367 126.857 325.689C123.041 318.586 118.437 311.582 112.897 305.002C103.126 292.72 88.726 282.699 72.939 277.523C73.98 273.725 74.168 269.289 73.777 264.832C73.108 267.328 72.056 269.625 70.496 271.264C70.519 271.301 72.025 266.121 73.159 259.524C72.296 253.696 71.123 248.075 70.841 242.902C70.011 248.597 70.197 256.682 69.16 266.79C69.092 263.811 67.094 245.943 70.974 236.456C71.202 234.216 71.647 232.106 72.186 230.194C68.615 235.197 65.946 244.325 66.271 255.247C66.209 254.513 65.615 249.915 66.134 244.216C66.572 237.939 69.617 230.896 73.181 227.142C74.745 223.029 76.257 220.497 76.206 220.48C68.53 224.968 63.219 232.931 61.864 240.797C60.387 248.651 61.678 255.368 62.989 260.589C64.969 267.679 67.157 272.808 68.771 276.28C53.639 272.207 37.52 272.668 23.148 279.859C8.75601 288.777 1.70601 304.419 0.360011 318.169C-0.227989 325.038 -0.215989 331.934 2.39301 337.983C4.91401 343.903 9.52601 348.422 14.673 350.38C17.235 351.374 19.891 351.724 22.332 351.535C24.927 351.46 27.252 350.073 28.658 348.39C31.434 344.869 31.795 340.793 30.59 337.887C29.477 335.39 26.361 334.783 25.235 335.991C23.34 336.418 22.038 338.218 22.272 340.187C22.522 342.291 24.432 343.796 26.538 343.546C28.644 343.296 30.147 341.387 29.897 339.28C29.657 337.255 27.879 335.79 25.872 335.905C25.877 335.901 25.882 335.897 25.888 335.895C27.017 335.502 28.263 336.057 29.033 336.85C30.711 338.54 30.387 341.164 29.82 343.287C28.591 347.828 24.273 350.459 19.927 349.27C11.161 347.889 5.48701 339.51 4.62501 331.599C3.22601 314.869 9.94301 298.328 21.329 289.151C26.966 284.508 33.673 281.753 40.37 281.19C47.361 280.667 54.418 281.042 60.923 282.218C74.045 284.525 85.386 290.23 94.505 297.223C110.905 310.037 120.73 325.58 127.433 338.553C128.812 352.101 132.505 364.975 137.395 376.537C135.987 375.424 134.212 374.422 132.091 373.795C123.576 373.442 116.815 377.883 112.066 382.507C115.116 380.202 119.084 378.079 123.929 377.144C128.601 376.206 135.049 376.957 138.444 381.267C138.416 381.313 137.574 380.35 135.631 379.36C133.698 378.37 130.531 377.744 126.944 378.147C119.691 378.868 111.632 383.727 106.857 388.96C105.33 391.367 104.197 393.771 103.371 395.981C107.408 390.061 115.626 382.154 126.617 380.543C126.289 380.606 121.537 381.594 116.326 385.059C110.832 388.479 105.33 394.457 102.318 399.59C101.136 404.523 101.764 407.615 101.674 407.586C105.667 399.135 111.696 394.206 116.912 390.36C122.239 386.66 127.352 384.398 131.146 383.986C138.391 382.534 142.819 390.213 144.44 392.686C143.114 389.286 141.391 386.149 139.042 384.242C136.774 382.251 134.036 381.578 131.292 381.722C125.716 382.038 120.523 385.003 116.597 387.743C108.622 393.465 105.034 399.382 104.96 399.274C111.409 389.103 121.843 381.265 131.16 380.625C135.764 380.309 139.412 382.709 141.465 385.617C142.358 387.465 143.278 389.283 144.226 391.076C144.56 392.006 144.81 392.848 145.006 393.551C145.257 393.925 145.397 394.119 145.398 394.118C145.462 393.945 145.524 393.768 145.585 393.59C149.669 401.016 154.201 407.95 159.058 414.361C159.127 414.664 159.2 414.966 159.258 415.286C159.268 415.359 156.897 410.066 150.555 406.745C145.69 407.516 141.712 410.516 139.344 413.69C143.005 411.816 150.856 410.736 156.981 416.599C156.993 416.602 154.284 415.164 149.946 414.975C145.632 414.715 140.241 416.08 136.793 417.894C136.103 419.423 135.565 420.905 135.196 422.284C138.771 420.771 144.754 418.411 151.183 419.305C151.188 419.318 148.705 419.714 145.383 420.82C142.051 421.876 137.994 423.659 134.66 424.508C134.038 427.553 133.998 429.655 133.984 429.654C148.18 430.097 153.343 428.597 155.677 426.467C157.573 424.427 160.481 421.019 162.657 418.946C182.155 442.925 205.745 458.658 227.845 468.093C250.095 477.59 270.924 481.039 288.099 481.661C288.565 481.68 289.017 481.685 289.476 481.699C287.675 483.75 286.113 485.924 284.812 488.112C287.101 485.841 289.947 483.579 293.429 481.766C296.028 481.779 298.54 481.736 300.962 481.639C297.681 482.879 294.267 484.768 291.064 487.027C290.486 486.591 289.914 486.486 289.449 486.611C287.125 487.253 284.49 490.499 284.404 490.414C283.849 491.287 283.363 492.057 282.939 492.739C282.78 492.774 282.58 492.818 282.322 492.878C282.119 492.928 281.804 492.988 281.494 493.048C281.924 493.029 282.362 493.009 282.783 492.991C282.51 493.433 282.263 493.836 282.046 494.2C281.742 494.682 281.457 495.076 281.224 495.413L280.9 495.87L280.759 496.065C281.27 495.502 281.43 495.297 281.502 495.199C282.128 494.476 282.625 493.936 283.025 493.532C282.913 493.637 282.799 493.751 282.706 493.845C282.871 493.608 283.058 493.293 283.241 492.97C283.336 492.967 283.431 492.961 283.523 492.957C283.509 492.986 283.496 493.016 283.484 493.036C283.446 493.094 283.443 493.107 283.455 493.104C283.512 493.05 283.566 492.998 283.617 492.952C283.625 492.951 283.633 492.951 283.64 492.951C283.661 492.93 283.686 492.907 283.71 492.886C283.69 492.906 283.667 492.929 283.644 492.951C283.787 492.944 283.923 492.937 284.056 492.93C282.875 494.124 281.793 495.348 280.847 496.574C279.767 499.595 279.081 502.509 278.683 505.151C283.158 498.487 291.634 489.702 303.144 485.713C303.169 485.731 298.421 488.127 293.107 492.734C287.74 497.251 282.061 503.947 278.235 509.372C277.914 515.1 278.88 518.522 278.832 518.514C286.004 510.218 292.631 505.287 297.961 500.868C303.324 496.544 307.581 493.248 311.111 490.537C314.639 487.861 317.602 485.669 320.635 484.12C323.627 482.522 326.587 481.616 328.463 481.089C320.471 480.704 314.521 483.279 309.222 486.418C303.945 489.581 299.359 493.384 295.525 496.887C287.875 503.909 283.097 509.776 283.045 509.724C290.532 498.754 299.356 489.623 308.106 484.525C316.786 479.187 325.505 479.589 329.69 480.757C330.233 480.608 330.532 480.511 330.532 480.512C330.278 479.575 329.891 478.677 329.401 477.82C331.459 477.409 333.456 476.973 335.374 476.517C359.645 473.008 390.366 473.242 420.846 483.667C456.311 495.159 489.664 520.57 509.76 551.591C511.211 553.785 512.599 556.008 513.934 558.246C513.372 557.942 512.788 557.67 512.176 557.433C513.322 558.196 514.251 559.08 514.979 560.013C515.49 560.893 515.986 561.773 516.478 562.656C516.872 563.716 517.022 564.746 516.931 565.649C516.888 565.67 516.529 564.042 514.605 561.722C512.741 559.401 508.644 556.867 503.592 556.106C494.242 556.706 486.684 561.222 480.441 565.722C484.276 563.547 488.919 561.406 494.497 560.198C499.851 559.052 507.172 558.73 512.296 562.892C512.288 562.923 511.056 561.954 508.52 561.214C506 560.455 502.177 560.237 497.963 560.974C489.477 562.394 479.867 567.245 473.118 571.887C470.73 574.149 468.64 576.393 466.849 578.483C473.654 573.473 484.227 566.176 497.458 563.456C496.682 563.644 491.115 565.169 484.641 568.602C477.613 572.192 469.635 577.67 464.087 581.892C460.471 586.585 458.858 589.915 458.857 589.904C467.801 583.216 476.389 578.469 483.879 574.355C491.385 570.35 498.106 567.376 503.484 566.349C513.975 563.602 518.728 572.97 520.682 576.064C519.098 571.902 516.835 568.108 513.764 566.025C510.726 563.913 507.06 563.585 503.476 564.07C496.239 565.177 489.661 568.6 484.28 571.484C473.503 577.524 466.909 582.502 466.868 582.417C478.711 573.396 491.495 564.881 503.202 562.995C509.034 562.028 514.09 564.147 516.774 567.681C519.518 571.142 520.609 574.807 521.303 577.129C521.574 577.589 521.724 577.825 521.724 577.825C522.03 576.704 522.251 575.491 522.343 574.203C526.174 582.504 529.207 590.821 531.385 598.813C534.995 614.15 528.624 628.937 519.887 637.084C515.546 641.296 510.688 644.118 506.159 645.857C501.704 648.028 497.395 647.43 494.68 645.33C492.033 643.383 490.701 640.551 490.886 638.974C491.324 637.244 492.662 637.161 492.54 637.112C491.131 637.404 490.219 639.071 490.73 640.495C491.111 641.915 491.793 643.261 492.726 644.415C494.583 646.734 497.455 648.246 500.481 648.443C506.585 648.198 511.873 645.56 516.816 642.588C526.599 636.353 533.471 626.132 535.815 615.105C537.01 609.591 537.111 603.896 536.181 598.431C535.139 592.886 533.56 588.102 531.937 583.105C531.488 581.772 531.018 580.454 530.541 579.141C532.58 572.639 535.532 565.686 539.82 558.677C537.147 561.421 534.577 563.925 532.174 565.56C532.129 565.56 536.818 558.512 544.515 551.531C550.091 543.758 556.989 536.333 564.252 530.34C555.435 536.414 544.358 544.815 534.251 558.619C534.245 558.651 538.295 551.128 545.904 543.316C553.383 535.384 564.432 527.599 573.736 523.421C577.176 521.249 580.569 519.48 583.739 518.104C573.229 520.578 558.267 527.779 545.114 540.78C545.097 540.792 550.616 534.324 559.33 528.205ZM201.76 235.511C206.641 243.953 205.795 250.632 205.731 251.419C205.648 241.418 199.965 232.102 192.612 226.96C192.973 226.755 193.338 226.555 193.702 226.356C197.363 229.055 199.896 232.444 201.76 235.511ZM216.877 211.008C226.395 208.54 236.176 207.893 245.609 208.733C264.529 210.51 281.875 218.665 294.716 230.444C307.658 242.202 316.136 257.32 319.772 272.717C323.21 288.314 319.835 304.031 312.543 315.969C297.938 340.184 269.097 349.33 250.79 340.305C241.596 336.342 235.13 329.625 231.353 323.004C227.551 316.357 226.071 309.721 226.491 304.454C227.173 296.547 229.886 292.123 231.124 290.373C225.626 298.699 225.061 309.911 229.407 318.887C233.511 328.332 241.358 336.053 250.831 340.089C260.269 344.193 271.289 344.568 280.952 341.057C290.651 337.787 299.38 331.83 306.096 324.168C319.651 308.839 324.235 286.341 317.743 267.156C311.605 248.042 298.435 231.49 281.538 221.346C264.739 211.027 244.466 207.087 225.474 209.993C213.275 211.993 201.772 216.298 191.242 222.119C190.951 221.981 190.656 221.85 190.359 221.726C198.881 217.08 207.738 213.456 216.877 211.008ZM187.841 223.155C188.058 223.232 188.27 223.313 188.473 223.398C188.573 223.439 188.665 223.485 188.763 223.527C188.364 223.76 187.965 223.995 187.568 224.232C187.242 224.115 186.911 224.006 186.579 223.911C186.998 223.656 187.418 223.403 187.841 223.155ZM214.014 124.056C219.521 120.85 225.544 120.106 230.368 120.808C235.251 121.474 238.868 123.658 240.844 125.532C242.611 127.188 243.308 128.477 243.473 128.746C240.256 124.225 234.521 121.792 229.218 121.54C223.832 121.214 218.691 122.634 214.655 124.962C209.897 127.62 207.13 131.439 205.694 134.868C205.686 134.259 205.674 133.649 205.659 133.04C207.451 129.188 210.619 125.953 214.014 124.056ZM52.471 42.871C52.459 42.743 52.458 42.614 52.448 42.486C52.469 42.739 52.483 42.874 52.471 42.871ZM142.563 16.776C128.104 7.21599 111.979 3.53699 98.129 4.31999C84.168 5.04999 72.675 10.213 64.693 16.052C56.451 21.753 53.763 29.763 52.845 34.812C52.364 37.803 52.33 40.009 52.378 41.351C51.963 31.484 56.346 21.408 64.545 15.894C72.885 9.72799 82.758 5.81599 92.907 4.44399C113.317 1.54899 134.064 8.58999 149.384 20.976C157.209 27.107 163.298 34.857 168.919 42.81C173.08 48.631 176.836 54.641 180.228 60.751C179.652 60.066 179.003 59.425 178.294 58.839C168.17 41.646 157.088 25.916 142.563 16.776ZM158.482 60.943C151.859 59.911 147.337 59.089 147.345 59.052C155.563 59.794 163.517 60.396 169.857 61.935C174.605 62.979 178.255 64.868 180.535 66.61C180.701 66.934 180.871 67.257 181.035 67.582C173.421 62.605 164.863 62.27 158.482 60.943ZM180.826 228.57C180.578 228.425 180.314 228.289 180.033 228.163C180.392 227.912 180.753 227.664 181.114 227.418C181.392 227.526 181.671 227.652 181.945 227.808C181.57 228.061 181.197 228.314 180.826 228.57ZM180.33 224.809C180.318 224.805 180.909 224.726 181.879 224.815C181.77 224.887 181.657 224.958 181.547 225.03C181.154 224.939 180.754 224.862 180.33 224.809ZM184.508 226.124C184.241 225.981 183.963 225.849 183.676 225.723C183.882 225.591 184.088 225.457 184.293 225.327C184.587 225.43 184.891 225.554 185.199 225.69C184.969 225.836 184.738 225.979 184.508 226.124ZM185.51 222.534C185.334 222.642 185.156 222.745 184.981 222.853C184.678 223.038 184.377 223.228 184.077 223.414C183.038 223.31 181.999 223.337 180.989 223.527C181.214 223.154 181.438 222.783 181.661 222.408C182.967 222.243 184.279 222.313 185.51 222.534ZM199.035 119.932C196.716 100.923 190.844 83.193 182.949 67.471C182.964 66.774 182.882 66.065 182.703 65.359C183.051 66.026 183.401 66.695 183.741 67.364C192.187 84.18 197.53 101.773 199.709 118.905C204.151 153.369 196.13 184.714 185.58 208.203C184.06 211.574 182.493 214.798 180.894 217.885C180.898 217.632 180.902 217.379 180.9 217.126C180.359 218.722 179.601 220.179 178.646 221.358C178.583 221.386 178.522 221.418 178.46 221.447C195.998 189.35 203.223 152.898 199.035 119.932ZM172.547 212.703C171.132 207.058 169.571 201.932 168.004 197.709C166.441 193.488 164.812 190.169 163.265 188.281C162.176 186.889 161.141 186.383 160.643 186.202C162.927 186.855 164.464 189.144 165.762 191.226C167.109 193.499 168.195 195.925 169.161 198.333C171.08 203.165 172.521 207.96 173.598 212.354C174.61 216.549 175.26 220.399 175.416 223.645C175.155 223.916 174.916 224.194 174.7 224.473C174.623 223.487 174.504 222.5 174.365 221.526C173.901 218.483 173.244 215.527 172.547 212.703ZM174.127 227.817C174.131 227.853 174.137 227.892 174.141 227.929C174.03 228.12 173.92 228.313 173.809 228.503C173.908 228.272 174.014 228.044 174.127 227.817ZM174.203 229.127C174.158 229.133 174.085 229.141 174 229.152C174 229.151 174 229.15 174.001 229.15C174.098 229.14 174.165 229.132 174.203 229.127ZM173.133 230.559C173.424 230.094 173.709 229.626 173.996 229.159C174.06 229.151 174.128 229.143 174.205 229.134L174.204 229.132C174.131 229.142 174.061 229.15 173.997 229.157C173.998 229.157 173.998 229.155 173.999 229.154C174.061 229.147 174.127 229.138 174.204 229.13V229.132C174.234 229.128 174.266 229.125 174.297 229.121C174.094 229.563 173.924 229.998 173.778 230.421C173.706 230.538 173.632 230.652 173.56 230.769C173.369 230.917 173.177 231.068 172.986 231.219C173.031 230.998 173.08 230.777 173.133 230.559ZM63.923 242.633C65.176 233.075 69.631 228.153 70.441 227.213C66.883 232.016 64.964 238.08 64.672 243.867C64.321 249.75 65.299 255.238 66.309 260.053C67.866 266.836 69.301 272.539 70.207 276.674C69.994 276.611 69.779 276.551 69.566 276.491C66.092 264.258 62.521 252.489 63.923 242.633ZM96.275 296.569C85.245 287.734 72.509 282.258 59.97 280.265C47.429 278.462 34.906 278.364 25.704 284.092C16.346 289.494 10.38 298.11 7.08701 306.17C3.77601 314.341 2.95701 322.142 3.10701 328.429C3.20101 334.7 5.30401 339.349 7.20701 342.046C9.10901 344.788 10.574 345.871 10.525 345.909C5.58201 341.513 2.96201 334.96 2.89301 328.454C2.66701 321.879 3.56801 315.298 5.59301 309.136C9.55001 296.831 18.376 286.079 29.891 281.353C35.609 278.86 41.774 278.441 47.933 278.505C54.06 278.589 60.08 279.304 65.844 280.674C77.395 283.399 87.741 288.847 96.302 295.585C110.755 307.054 120.365 321.309 127.083 334.382C127.114 334.854 127.147 335.323 127.183 335.793C119.229 320.244 108.777 306.638 96.275 296.569ZM159.133 286.492C164.047 286.725 167.803 288.969 169.651 290.93C171.397 292.789 171.951 294.146 172.033 294.313C169.356 289.5 163.294 287.032 158.06 287.317C152.729 287.467 147.956 289.331 144.113 291.585C141.976 292.84 140.142 294.238 138.569 295.671C138.745 295.062 138.924 294.454 139.11 293.845C145.133 288.566 152.988 286.061 159.133 286.492ZM170.436 235.591C169.875 236.424 169.317 237.238 168.758 238.038C168.211 238.529 167.67 239.025 167.134 239.526C167.777 238.625 168.411 237.718 169.036 236.807C169.5 236.398 169.967 235.992 170.436 235.591ZM128.441 327.893C128.197 305.516 134.478 283.713 145.382 265.399C151.595 254.848 159.38 245.501 168.191 237.566C167.58 238.485 166.977 239.375 166.382 240.234C160.097 246.212 154.564 252.82 149.816 259.87C149.105 260.52 148.727 260.835 148.733 260.841C149.019 260.634 149.306 260.419 149.591 260.206C136.282 280.112 129.228 303.488 129.249 326.036C129.23 327.509 129.245 328.975 129.286 330.438C129.013 329.875 128.735 329.31 128.452 328.75C128.449 328.463 128.442 328.178 128.441 327.893ZM128.969 338.174C129.323 338.908 129.67 339.638 130.006 340.361C130.074 340.945 130.148 341.527 130.225 342.107C129.87 341.325 129.508 340.545 129.141 339.773C129.081 339.238 129.021 338.707 128.969 338.174ZM142.088 383.543C141.969 383.288 141.85 383.033 141.733 382.779C141.547 382.165 141.227 381.324 140.67 380.304C140.59 380.152 140.499 379.991 140.4 379.831C135.128 367.871 131.262 355.369 129.503 342.664C129.539 342.739 129.577 342.814 129.614 342.891C129.975 343.655 130.325 344.407 130.667 345.152C132.282 355.355 135.185 365.182 138.939 374.364C139.184 374.98 139.439 375.593 139.692 376.205C139.606 376.15 139.525 376.092 139.438 376.039C139.553 376.156 139.661 376.275 139.769 376.394C140.557 378.301 141.377 380.189 142.229 382.051C142.24 382.574 142.192 383.074 142.088 383.543ZM146.771 392.827C146.55 392.417 146.333 392.007 146.115 391.596C146.195 391.203 146.261 390.8 146.31 390.387C149.347 396.175 152.68 401.708 156.261 406.961C155.926 406.873 155.586 406.8 155.24 406.74C152.184 402.227 149.354 397.582 146.771 392.827ZM154.479 422.1C152.094 423.18 149.713 424.167 147.331 424.989C142.61 426.682 138.304 427.423 138.306 427.363C144.749 424.784 149.587 421.702 153.81 420.008C156.647 418.785 159.471 418.107 161.689 417.737C161.903 418.006 162.117 418.278 162.334 418.546C158.925 419.875 156.613 421.1 154.479 422.1ZM195.525 434.154C198.785 433.217 201.533 434.823 201.488 434.799C197.547 434.006 194.427 436.35 193.194 438.858C192.898 439.409 192.691 439.962 192.546 440.503C191.996 440.049 191.45 439.591 190.906 439.13C191.44 436.434 193.572 434.584 195.525 434.154ZM289.795 481.335C254.188 479.977 219.356 467.288 191.998 445.892C181.412 437.714 171.888 428.334 163.619 418.077C163.634 418.063 163.65 418.051 163.664 418.038C163.644 418.046 163.625 418.054 163.605 418.059C163.461 417.88 163.319 417.701 163.175 417.518C163.468 417.484 163.743 417.453 163.999 417.427C181.964 439.899 204.293 455.926 226.43 465.918C248.761 476.054 270.854 480.269 290.111 480.98C290.004 481.096 289.901 481.215 289.795 481.335ZM282.882 492.825C282.791 492.828 282.697 492.83 282.618 492.844L282.305 492.883C282.369 492.87 282.661 492.802 282.936 492.739C282.917 492.768 282.899 492.797 282.882 492.825ZM283.662 492.585C283.657 492.586 283.652 492.588 283.649 492.589C283.648 492.591 283.648 492.593 283.648 492.595C283.642 492.596 283.634 492.598 283.628 492.598C283.601 492.613 283.607 492.619 283.639 492.619C283.611 492.705 283.586 492.78 283.563 492.845C283.476 492.838 283.394 492.836 283.316 492.831C283.351 492.768 283.386 492.702 283.422 492.638C283.33 492.657 283.202 492.681 283.007 492.724C283.194 492.68 283.359 492.644 283.425 492.631C283.782 491.982 284.081 491.383 284.095 491.398C283.874 491.898 283.745 492.297 283.65 492.588C283.653 492.586 283.658 492.585 283.662 492.585ZM283.721 492.855C283.769 492.812 283.815 492.772 283.856 492.736C283.817 492.773 283.781 492.81 283.736 492.855C283.73 492.855 283.726 492.855 283.721 492.855ZM284.104 492.881C283.974 492.873 283.856 492.867 283.737 492.858C283.821 492.779 283.91 492.697 283.985 492.629C283.987 492.627 283.99 492.625 283.993 492.623C284.001 492.616 284.007 492.612 284.014 492.604C284.045 492.58 284.078 492.552 284.105 492.532C284.135 492.512 284.155 492.501 284.178 492.485C284.13 492.519 284.069 492.566 283.992 492.623C284.049 492.628 284.101 492.64 284.14 492.659C284.189 492.673 284.241 492.682 284.29 492.696C284.23 492.758 284.166 492.818 284.104 492.881ZM301.672 481.366C299.135 481.451 296.6 481.471 294.068 481.441C294.312 481.321 294.563 481.203 294.816 481.085C297.531 481.111 300.182 481.067 302.774 480.969C302.411 481.093 302.044 481.226 301.672 481.366ZM299.58 479.299C303.825 478.072 308.742 477.652 313.459 478.854C308.909 479.18 304.277 479.334 299.58 479.299ZM373.751 471.414C363.639 471.303 354.598 472.097 346.796 473.272C347.739 472.958 348.413 472.72 348.824 472.579C374.345 468.855 400.179 471.41 423.292 478.764C423.632 479.169 423.979 479.558 424.331 479.926C406.238 473.938 388.776 471.57 373.751 471.414ZM422.79 460.682C423.064 453.24 425.822 448.628 425.806 448.671C422.323 460.788 425.979 472.451 430.09 479.525C429.199 479.207 428.31 478.896 427.426 478.597C423.513 472.537 422.646 465.729 422.79 460.682ZM429.948 481.897C429.583 481.491 429.234 481.079 428.902 480.66C429.73 480.958 430.552 481.264 431.374 481.572C431.661 481.994 431.947 482.387 432.228 482.761C431.469 482.468 430.709 482.179 429.948 481.897ZM509.877 543.896C492.077 518.027 467.711 498.935 443.166 487.454C440.924 486.393 438.682 485.398 436.44 484.459C436.56 484.215 436.68 483.972 436.794 483.734C438.835 484.591 440.854 485.485 442.834 486.422C475.279 501.455 499.331 525.493 513.892 548.863C519.997 558.555 524.636 568.12 528.126 577.056C528.227 577.83 528.34 578.529 528.459 579.141C523.631 566.552 517.335 554.675 509.877 543.896ZM528.633 579.597C528.591 579.096 528.556 578.596 528.531 578.098C528.649 578.406 528.762 578.71 528.88 579.015C528.899 579.533 528.93 580.021 528.973 580.484C528.861 580.186 528.746 579.892 528.633 579.597ZM534.557 597.392C535.528 602.15 535.638 606.634 535.21 610.594C534.359 618.566 531.556 624.289 529.461 627.88C527.415 631.214 525.979 632.874 525.796 633.092C530.942 626.708 534.195 618.785 534.994 610.595C536.026 602.315 533.635 594.148 531.115 586.568C530.636 585.122 530.134 583.685 529.618 582.255C529.681 582.025 529.743 581.793 529.81 581.562C529.923 581.884 530.042 582.208 530.157 582.53C531.977 587.778 533.457 592.666 534.557 597.392ZM539.616 546.628C532.329 557.003 529.534 567.551 528.972 575.026C528.829 574.668 528.685 574.312 528.541 573.957C529.087 563.656 533.387 553.9 538.577 546.191C544.903 536.789 552.723 529.753 559.962 524.889C573.906 515.536 585.231 514.519 586.211 514.388C565.83 518.223 549.075 532.686 539.616 546.628Z" fill="#49AC5E"/>
<path d="M498.185 421.805C496.331 423.218 494.29 424.19 492.15 424.418C492.138 424.398 496.104 422.001 500.33 417.551C502.441 412.653 503.616 406.975 503.559 401.572C502.611 407.643 499.294 414.701 493.08 420.933C493.02 421.104 503.012 407.071 502.845 394.871C502.366 392.582 501.637 390.501 500.799 388.739C501.779 394.784 500.314 403.333 496.07 411.23C496.049 411.222 497.615 407.497 498.778 402.422C500.022 397.374 500.295 390.83 499.311 386.026C497.082 382.51 494.979 381.077 495.035 381.042C496.802 388.586 495.661 394.445 494.578 399.607C493.407 404.761 492.053 409.302 491.005 413.384C488.831 421.499 487.927 427.739 487.8 430.468C491.454 418.905 495.236 408.8 496.661 400.988C498.224 393.239 497.456 387.82 497.502 387.817C499.176 397.556 496.573 406.948 494.144 414.596C491.605 422.256 488.982 428.292 487.758 431.339C487.746 431.715 487.752 431.914 487.752 431.914C491.824 430.084 495.429 426.485 498.185 421.805Z" fill="#28B485"/>
<path d="M41.173 281.971C43.141 282.557 44.789 283.75 45.78 285.48C45.828 285.53 42.716 283.12 37.393 283.065C33.361 284.805 30.191 288.078 28.23 291.465C31.148 288.344 36.968 284.985 43.474 286.543C43.501 286.555 40.516 286.361 36.706 287.88C32.9 289.299 28.632 292.541 26.243 295.879C25.722 297.455 25.395 298.963 25.233 300.33C27.383 296.786 31.655 292.117 37.561 290.015C37.573 290.02 35.127 291.274 32.432 293.69C29.701 296.054 26.899 299.627 25.071 302.507C24.995 305.445 25.536 307.182 25.507 307.18C32.618 298.625 38.006 295.448 41.649 292.34C45.248 289.463 48.777 287.57 50.746 286.793C42.641 287.689 37.667 292.19 33.657 295.764C29.804 299.438 27.525 302.6 27.486 302.567C31.073 296.732 35.577 292.03 40.111 289.352C44.611 286.591 49.116 286.318 51.342 286.537C51.605 286.42 51.747 286.349 51.747 286.349C50.119 283.104 45.705 281.201 41.173 281.971Z" fill="#28B485"/>
<path d="M174.211 229.133H174.205L174.209 229.14L174.211 229.133Z" fill="#28B485"/>
<path d="M283.451 493.104C283.322 493.227 283.18 493.367 283.021 493.532C283.071 493.482 283.121 493.433 283.167 493.39C283.407 493.173 283.546 493.043 283.64 492.952C283.638 492.952 283.636 492.952 283.636 492.952C283.541 493.041 283.47 493.104 283.451 493.104Z" fill="#28B485"/>
<path d="M280.501 493.206C280.318 493.251 280.9 493.154 281.49 493.047C281.444 493.047 281.4 493.049 281.356 493.051L280.501 493.206Z" fill="#7ED56F"/>
<path d="M283.629 492.598C283.635 492.596 283.642 492.593 283.65 492.589L283.651 492.587C283.591 492.6 283.534 492.616 283.473 492.627C283.537 492.615 283.584 492.607 283.629 492.598Z" fill="#7ED56F"/>
<path d="M283.426 492.63C283.424 492.632 283.424 492.634 283.423 492.637C283.432 492.635 283.442 492.633 283.447 492.632C283.463 492.626 283.453 492.626 283.426 492.63Z" fill="#7ED56F"/>
<path d="M283.473 492.627C283.465 492.629 283.457 492.63 283.448 492.632C283.446 492.633 283.448 492.633 283.444 492.633C283.453 492.632 283.464 492.629 283.473 492.627Z" fill="#7ED56F"/>
<path d="M305.673 261.438C303.983 259.569 302.004 258.842 301.074 258.55C300.894 258.622 300.799 258.671 300.797 258.67C299.92 261.424 299.677 263.179 299.877 264.454C300.451 263.405 301.225 262.116 302.299 260.6C302.27 260.62 301.425 263.092 300.153 265.457C300.606 266.42 301.428 267.17 302.485 267.888C302.211 266.556 302.617 264.715 303.427 260.893C303.645 260.932 303.884 266.251 303.907 268.807C304.46 269.118 304.972 269.459 305.495 269.748C305.603 268.166 305.816 265.877 305.726 262.809C305.825 262.786 307.325 267.434 306.345 270.227C307.5 270.901 308.392 271.338 308.392 271.336C312.289 266.046 310.911 261.357 308.369 259.428C305.837 257.353 302.709 257.942 301.486 258.397C305.803 258.731 308.193 262.202 308.644 264.731C309.183 267.342 308.39 269.208 308.413 269.2C308.695 266.121 307.393 263.245 305.673 261.438Z" fill="#28B485"/>
<path d="M306.523 294.336C307.002 295.285 307.409 295.949 307.409 295.947C311.93 293.775 313.048 290.476 312.43 288.246C311.962 285.95 309.918 284.66 309.075 284.209C311.141 286.768 311.074 289.73 310.243 291.589C309.542 293.514 308.227 294.47 308.255 294.474C311.206 290.333 309.519 285.328 308.776 284.062C308.643 284.001 308.567 283.972 308.567 283.972C306.631 285.02 305.592 286.032 305.136 287.053C305.977 286.657 307.028 286.264 308.376 285.939C308.361 285.938 306.668 286.934 304.795 287.942C304.588 288.921 304.804 289.94 305.089 290.971C305.549 289.883 306.527 288.627 308.895 286.717C308.934 286.781 306.576 290.352 305.606 292.295C305.813 292.768 305.985 293.221 306.192 293.646C306.948 292.593 307.961 291.03 309.309 289.05C309.35 289.056 308.292 292.766 306.523 294.336Z" fill="#7ED56F"/>
<path d="M299.672 315.061C299.592 316.055 299.625 316.695 299.625 316.695C307.368 314.095 307.165 308.53 306.598 306.861C305.785 312.549 301.379 315.027 300.83 315.41C304.307 312.365 306.214 308.178 306.516 306.613C306.477 306.507 306.45 306.449 306.45 306.449C304.874 306.563 303.766 306.975 302.837 307.74C303.558 307.699 304.358 307.781 305.267 308.047C305.271 308.052 303.764 308.154 302.115 308.453C301.371 309.309 300.834 310.388 300.443 311.484C301.318 310.52 302.752 309.594 305.089 308.897C305.096 308.923 301.735 311.103 300.028 312.898C299.908 313.403 299.824 313.897 299.758 314.34C300.723 313.416 302.202 312.221 304.034 311.006C304.038 311.022 301.479 313.735 299.672 315.061Z" fill="#7ED56F"/>
<path d="M289.092 326.756C289.059 327.182 289.057 327.489 289.057 327.489C290.915 327.218 292.114 325.592 291.58 324.043C291.011 322.574 289.847 322.65 289.534 322.688C291.076 322.953 291.464 325.18 290.76 325.915C290.24 326.768 289.612 326.977 289.629 326.995C290.46 326.364 291.047 325.217 290.752 324.195C290.475 323.174 289.689 322.859 289.412 322.705C289.359 322.715 289.332 322.723 289.332 322.723C289.194 323.496 289.156 323.996 289.113 324.287C289.31 324.086 289.556 323.789 289.861 323.422C289.834 323.412 289.663 324.162 289.068 324.502C289.064 324.686 289.117 324.92 289.134 325.32C289.304 324.938 289.854 324.766 290.183 323.641C290.382 323.746 289.893 325.316 289.14 325.852L289.112 326.447C289.509 326.074 290.17 325.636 290.602 324.659C290.764 324.729 290.027 326.371 289.092 326.756Z" fill="#7ED56F"/>
<path d="M272.615 335.773C276.881 336.789 278.715 335.176 279.431 334.404C276.749 335.752 274.214 335.553 273.682 335.568C276.255 335.236 278.675 334.627 279.524 334.297C279.564 334.248 279.583 334.221 279.583 334.221C279.029 333.619 278.354 333.33 277.643 333.246C277.942 333.494 278.215 333.826 278.425 334.258C278.42 334.264 277.836 333.705 277.012 333.248C276.315 333.291 275.606 333.5 274.973 333.84C275.757 333.703 276.787 333.866 277.977 334.47C277.986 334.463 275.711 334.027 274.209 334.268C273.952 334.429 273.732 334.643 273.535 334.814C274.3 334.65 275.444 334.668 276.668 334.842C276.668 334.842 274.513 334.946 273.23 335.102C272.827 335.498 272.615 335.773 272.615 335.773Z" fill="#7ED56F"/>
<path d="M103.402 12.356C111.556 22.668 113.183 16.056 116.433 15.3C112.924 15.876 111.094 15.933 108.828 15.094C106.732 14.368 105.275 13.083 105.292 13.079C110.684 15.426 114.919 14.358 116.827 15.092C117.002 15.001 117.103 14.946 117.103 14.946C118.001 12.293 116.968 9.92502 115.308 8.76502C115.672 10.042 115.736 11.673 115.301 13.447C115.318 13.471 115.282 10.722 113.839 7.99402C112.144 7.39702 110.45 7.63002 109.026 8.17702C110.518 8.59902 112.907 9.99002 114.159 13.539C113.636 12.824 110.031 9.65002 107.329 9.04602C106.757 9.39902 106.256 9.78502 105.784 10.16C107.163 10.815 109.448 11.838 111.499 13.725C111.038 13.479 107.228 12.307 105.044 10.784C104.063 11.654 103.4 12.355 103.402 12.356Z" fill="#7ED56F"/>
<path d="M121.146 21.453C121.06 22.889 121.241 23.771 121.237 23.775C127.774 24.197 128.585 25.314 129.464 24.281C130.227 23.343 131.97 21.482 133.034 20.635C129.556 21.958 128.549 22.381 126.603 22.541C124.837 22.713 122.981 22.881 122.97 22.844C125.618 21.99 127.431 21.358 129.126 20.936C130.798 20.449 132.431 20.437 133.362 20.342C133.51 20.211 133.593 20.134 133.593 20.134C133.85 17.363 132.537 15.301 130.506 14.5C131.219 15.678 131.598 17.25 131.557 19.074C131.537 19.119 131.11 16.371 128.682 14.131C126.589 14.034 124.547 15.079 123.293 16.465C125.158 15.813 128.656 16.162 130.564 19.544C130.569 19.55 129.642 18.652 127.895 18.104C126.136 17.456 123.68 17.657 121.978 18.353C121.662 19.082 121.438 19.783 121.289 20.413C122.871 19.741 125.619 19.183 128.019 20.278C127.278 20.176 123.806 20.553 121.146 21.453Z" fill="#7ED56F"/>
<path d="M84.919 17.851C89.5 16.332 91.857 15.157 93.648 13.846C95.371 12.541 96.631 11.219 97.242 10.506C91.589 13.715 86.804 16.512 86.493 16.52C91.022 13.184 95.525 10.802 97.43 10.277C97.51 10.175 97.553 10.117 97.553 10.117C96.397 8.93598 94.707 8.50698 93.032 8.78998C93.816 9.08698 94.558 9.65298 95.115 10.423C95.119 10.435 93.706 9.51698 91.617 9.18098C90.084 9.75898 88.746 10.835 87.738 11.998C89.187 11.12 91.467 10.354 94.174 10.995C93.529 10.98 89.05 11.617 86.611 13.542C86.275 14.112 86.006 14.671 85.773 15.169C87.082 14.22 89.185 13.06 91.658 12.536C90.865 12.839 87.471 14.618 85.445 15.987C85.063 17.126 84.919 17.851 84.919 17.851Z" fill="#7ED56F"/>
<path d="M15.256 313.213C24.35 306.582 20.448 301.241 19.572 299.076C20.677 306.182 16.312 311.238 16.154 311.305C19.015 306.114 19.056 300.684 19.39 298.756C19.306 298.616 19.256 298.54 19.256 298.54C17.028 298.655 15.431 299.691 14.484 301.056C15.474 300.734 16.681 300.58 18.072 300.72C18.079 300.716 15.968 301.19 13.814 302.293C13.22 303.721 13.126 305.298 13.273 306.773C13.877 305.274 15.258 303.378 18.177 301.828C17.914 302.042 14.679 305.837 13.586 308.616C13.732 309.258 13.913 309.851 14.096 310.399C14.867 308.966 16.085 306.849 17.876 304.712C17.739 304.946 16.048 309.077 14.409 311.271C14.859 312.449 15.256 313.213 15.256 313.213Z" fill="#7ED56F"/>
<path d="M10.083 312.67C12.119 318.67 8.672 323.623 8.646 323.537C10.779 318.978 10.154 314.033 9.906 312.465C9.827 312.377 9.781 312.333 9.781 312.333C8.379 313.092 7.553 314.158 7.099 315.346C7.714 314.943 8.461 314.593 9.394 314.402C9.394 314.398 8.113 315.258 6.788 316.383C6.554 317.553 6.577 318.785 6.71 319.953C7.084 318.691 7.882 317.123 9.633 315.281C9.641 315.293 7.737 319.069 6.967 321.43C7.057 321.943 7.166 322.43 7.28 322.873C7.852 321.637 8.627 319.826 9.694 317.768C9.71 317.766 8.733 321.651 7.473 323.586C7.753 324.556 8.004 325.19 8.004 325.19C14.441 319.15 11.107 313.797 10.083 312.67Z" fill="#28B485"/>
<path d="M68.283 24.576C76.532 23.609 76.429 17.668 76.137 16.254C74.847 21.914 69.607 23.783 69.619 23.688C73.597 21.411 75.518 17.321 76.092 16.001C76.07 15.891 76.054 15.83 76.054 15.83C74.519 15.616 73.311 15.958 72.35 16.6C73.058 16.64 73.847 16.797 74.714 17.174C74.715 17.172 73.23 17.102 71.583 17.209C70.809 17.962 70.23 18.914 69.772 19.871C70.692 19.127 72.118 18.381 74.474 17.973C74.471 17.981 71.043 19.781 69.264 21.135C69.104 21.586 68.95 22.002 68.828 22.404C69.896 21.809 71.408 20.848 73.301 19.889C73.307 19.883 70.615 22.323 68.639 23.053C68.395 23.945 68.283 24.576 68.283 24.576Z" fill="#28B485"/>
<path d="M62.891 25.313C62.062 25.226 61.188 25.557 60.442 26.142C60.883 26.045 61.378 26.08 61.839 26.249C61.852 26.262 60.895 26.248 59.917 26.764C59.33 27.479 58.949 28.36 58.827 29.238C59.189 28.345 60.156 27.384 61.512 26.786C61.208 26.987 59.326 28.665 58.655 30.302C58.651 30.675 58.689 31.028 58.718 31.338C59.001 30.484 59.716 29.31 60.702 28.304C60.378 28.737 59.264 30.579 58.778 31.832C58.87 32.495 58.973 32.888 58.973 32.888C62.145 28.915 62.562 26.89 62.856 25.586C60.979 28.872 59.436 31.655 59.375 31.773C60.514 28.759 62.188 26.317 62.879 25.424C62.887 25.352 62.891 25.313 62.891 25.313Z" fill="#28B485"/>
<path d="M56.459 45.07C58.09 44.249 58.398 42.479 57.838 41.599C57.4 40.64 56.459 40.466 56.158 40.402C57.246 41.047 57.679 42.369 57.418 43.213C57.297 44.086 56.748 44.469 56.777 44.475C57.961 42.643 56.484 40.653 56.043 40.389C55.992 40.385 55.964 40.385 55.964 40.385C55.559 41.045 55.381 41.526 55.399 41.912C55.598 41.686 55.868 41.422 56.231 41.135C56.206 41.137 55.917 41.717 55.376 42.242C55.399 42.583 55.585 42.886 55.688 43.232C55.826 42.831 56.025 42.363 56.522 41.358C56.595 41.386 56.232 43 55.917 43.68C56.004 43.846 56.033 44.011 56.102 44.17C56.393 43.773 56.694 43.134 56.934 42.228C56.983 42.216 56.932 43.842 56.202 44.431C56.34 44.795 56.459 45.07 56.459 45.07Z" fill="#28B485"/>
<path d="M8.53099 334.229C8.91799 334.508 9.17399 334.625 9.17399 334.625C10.256 331.127 8.75799 329.93 7.98299 329.328C9.23099 331.311 8.98499 333.219 8.97499 333.734C8.72599 331.75 8.185 329.92 7.877 329.258C7.83 329.228 7.80299 329.213 7.80299 329.213C7.19199 329.664 6.87999 330.207 6.78899 330.781C7.03499 330.528 7.37699 330.303 7.80999 330.123C7.81199 330.127 7.25099 330.602 6.77499 331.287C6.79799 331.844 6.99399 332.408 7.31399 332.908C7.19599 332.266 7.38599 331.429 8.01099 330.469C8.01099 330.459 7.51099 332.27 7.72099 333.501C7.85499 333.698 8.08599 333.869 8.24699 334.012C8.07599 333.379 8.151 332.455 8.349 331.484C8.359 331.486 8.37099 333.16 8.53099 334.229Z" fill="#28B485"/>
</g>
<defs>
<clipPath id="clip0_1_30">
<rect width="600.955" height="648.239" fill="white" transform="translate(0.0452881 0.204346)"/>
</clipPath>
</defs>
</svg>
